PathFileType	4	(X/Y/Z)	OpenSim_Sub10_CSStiffKnee_Gyro.trc
DataRate	CameraRate	NumFrames	NumMarkers	Units	OrigDataRate	OrigDataStartFrame	OrigNumFrames
100	100	40	8	m	100	6131	8174
Frame#	Time	torso_imu_offset_imu	pelvis_imu_offset_imu	tibia_r_imu_offset_imu	femur_r_imu_offset_imu	tibia_l_imu_offset_imu	femur_l_imu_offset_imu	toes_r_imu_offset_imu	toes_l_imu_offset_imu
				X1	Y1	Z1	X2	Y2	Z2	X3	Y3	Z3	X4	Y4	Z4	X5	Y5	Z5	X6	Y6	Z6	X7	Y7	Z7	X8		Y8	Z8	

6131	61.30000000	-0.39018170	0.08616444	-0.21845895	-0.55020783	-0.22963435	-0.17247468	-0.44130735	0.04638265	-1.03335934	-0.64733951	0.10596438	-0.33706725	-1.51543972	-0.11010995	-0.00704905	-0.46510760	-0.17838099	-0.30147722	-0.00344000	-0.52527918	-0.26487235	-0.45789696	-0.54493902	-1.14039054
6132	61.31000000	-0.34705211	-0.04284695	-0.17159632	-0.59499480	-0.27735306	-0.18188856	-0.40188567	0.08948402	-1.10443514	-0.66254060	0.10193888	-0.30135444	-1.59047333	-0.15395319	0.19480350	-0.57506847	-0.27363184	-0.26451946	-0.02418580	-0.61228104	-0.24325027	-0.54744800	-0.63468395	-1.09608333
6133	61.32000000	-0.35883970	-0.11337449	-0.17951886	-0.63579468	-0.35192150	-0.15661441	-0.35650636	0.08435144	-1.16070246	-0.67830184	0.11660482	-0.26318769	-1.69986446	-0.17264108	0.37108612	-0.72159918	-0.37707845	-0.20345068	-0.05426067	-0.70370897	-0.23050393	-0.46984312	-0.80220690	-1.07523083
6134	61.33000000	-0.27858573	-0.22659386	-0.27641104	-0.71140235	-0.45374451	-0.12435343	-0.32312235	0.07144120	-1.23771773	-0.70574006	0.14748447	-0.21492067	-1.75802314	-0.26205990	0.51557115	-0.86187066	-0.48884841	-0.13368279	-0.06272733	-0.81095695	-0.20653499	-0.23713958	-1.03668250	-1.04580419
6135	61.34000000	-0.00592806	-0.36943897	-0.30936261	-0.78953050	-0.56875578	-0.08144847	-0.26858775	0.07276062	-1.33736626	-0.74020761	0.18256212	-0.17725720	-1.69647160	-0.37975584	0.62886928	-0.95782400	-0.59564233	-0.06101995	-0.07596820	-0.93701849	-0.18398266	-0.17628503	-1.19683189	-1.01643434
6136	61.35000000	0.55244960	-0.40159598	-0.19889966	-0.84679346	-0.65193253	-0.03780706	-0.23835198	0.08741520	-1.41929656	-0.76224536	0.21249881	-0.14147574	-1.52180846	-0.42641063	0.74238243	-0.98042270	-0.69653443	0.01705856	-0.10519956	-1.05834160	-0.16566982	-0.01795310	-1.33088645	-0.96363543
6137	61.36000000	1.10175898	-0.32879312	-0.13511824	-0.88181750	-0.65829525	0.00360057	-0.27481703	0.10087801	-1.50821847	-0.76385042	0.23100568	-0.10067953	-1.37339628	-0.44211022	0.85541254	-0.92763208	-0.75857993	0.10194804	-0.05659258	-1.21507395	-0.16015951	-0.40480792	-2.09813709	-0.46434899
6138	61.37000000	0.90229495	-0.04642851	-0.30801071	-0.87745765	-0.59226523	0.05536817	-0.38037174	0.10295964	-1.61526933	-0.75923549	0.24079490	-0.04153304	-1.41552945	-0.70537424	0.88696328	-0.79117943	-0.78899731	0.19470369	-0.09080822	-1.40143709	-0.12909968	-0.31290440	-3.26193982	0.21500603
6139	61.38000000	-0.01060916	0.45835015	-0.57582932	-0.79728011	-0.49840741	0.13065099	-0.48723812	0.08819463	-1.75417786	-0.75304753	0.25519024	0.03878657	-1.48528600	-0.82579924	1.09615140	-0.55736894	-0.83038105	0.24487277	-0.15642285	-1.61692102	-0.07441486	-0.40656163	-2.52288803	0.82449202
6140	61.39000000	-0.86019134	0.71196716	-0.69377396	-0.65686068	-0.41033298	0.17288578	-0.59633045	0.07498945	-1.90413492	-0.72484029	0.27709534	0.14239154	-1.21035308	-0.92337414	1.36712916	-0.27610853	-0.89718202	0.28326688	-0.16239504	-1.86679759	-0.01521504	-0.36887925	-1.61672929	1.33273051
6141	61.40000000	-1.06715376	0.51168374	-0.66551564	-0.45636566	-0.33825414	0.18076714	-0.73640900	0.08628546	-2.06175933	-0.66173403	0.30863588	0.28005005	-0.24990438	-1.07001219	1.40076596	-0.05308226	-1.04379748	0.40502319	-0.28969550	-2.20455067	0.04180955	-1.82375102	-0.81295257	1.13375816
6142	61.41000000	-0.70912214	0.18863718	-0.64577166	-0.26117148	-0.31844836	0.14729802	-0.85660731	0.06781698	-2.21009621	-0.54172506	0.32194066	0.44446917	-0.06215770	-0.71638010	1.45350250	0.01911534	-1.03824622	0.27597013	-0.11070396	-2.64320258	0.01147639	-2.33006235	-0.36357335	0.94421495
6143	61.42000000	-0.19976429	-0.02036493	-0.74931826	-0.24369321	-0.38206085	0.09064733	-0.95716391	-0.00258437	-2.33510008	-0.38861772	0.31037288	0.64031684	-0.64080582	-0.35066147	1.47798348	0.07133097	-0.55354438	-0.08501370	-0.16045112	-3.20318297	-0.05984848	-0.72630946	-0.11520837	0.85127433
6144	61.43000000	0.08515365	-0.08748160	-0.91896282	-0.28878231	-0.34970432	0.06972606	-1.04704023	-0.09786549	-2.46215161	-0.28340598	0.30615919	0.87911707	-0.45615784	-0.44546263	1.43178044	0.45326629	-0.17714537	-0.36692545	-0.01663515	-3.92259780	-0.24970997	-0.33337811	-0.14249349	0.43205013
6145	61.44000000	0.03609968	-0.04428784	-0.95394176	-0.28984596	-0.19113443	0.09344239	-1.10699644	-0.17047554	-2.59367062	-0.28760741	0.34348174	1.16567139	-0.34445092	-0.38450266	1.51088839	0.88682216	-0.22286824	-0.39541334	0.35780458	-4.68659143	-0.54566453	-0.44510348	-0.29460916	0.08082394
6146	61.45000000	-0.15853787	0.02351160	-0.78876858	-0.39780186	-0.12855920	0.18791055	-1.11510755	-0.21238589	-2.70541537	-0.35933470	0.41414966	1.46892556	-0.64779989	-0.38447132	1.42602149	0.95168246	-0.31045327	-0.14349056	0.55068100	-5.04113800	-0.77118948	-0.01524756	-0.15487568	-0.13540164
6147	61.46000000	-0.42317813	0.02192017	-0.53306557	-0.57001432	-0.11518770	0.26812509	-0.92701837	-0.28348732	-2.78741204	-0.42436863	0.48929686	1.73904174	-0.60434859	-0.43455271	1.11298577	0.70935567	-0.32274967	0.17426501	0.44374368	-5.26333056	-0.86138861	0.18826460	-0.09415990	-0.24323462
6148	61.47000000	-0.65061553	0.01478792	-0.43310164	-0.68926463	-0.08907310	0.26902864	-0.49810835	-0.31238865	-2.79944818	-0.45407630	0.54520811	1.94357760	-0.52307223	-0.43684912	0.74950384	0.44393335	-0.33004720	0.53008050	1.32156013	-5.48087310	-0.90038784	0.12890533	-0.07902894	-0.20711182
6149	61.48000000	-0.63176184	-0.01199822	-0.44092490	-0.75632364	-0.04628218	0.23926641	0.07118058	-0.20933299	-2.77690208	-0.43196395	0.56132126	2.06907921	-0.45103170	-0.53128792	0.41144562	0.35595375	-0.37049242	0.95821979	0.48317641	-5.46609953	-0.64355603	0.04136931	-0.07025866	-0.10485532
6150	61.49000000	-0.50637357	-0.13122317	-0.50391907	-0.77927440	0.02491540	0.20414103	0.39913434	-0.10513897	-2.84848835	-0.39284358	0.53052992	2.16499756	-0.14213742	-0.52140007	0.29653728	0.51777100	-0.39989049	1.31115931	-1.79545308	-5.32087768	-0.63261235	-0.06556450	-0.05265436	0.00107373
6151	61.50000000	-0.51556694	-0.25526405	-0.65069553	-0.75706249	0.09355013	0.18002733	0.43872582	-0.11731006	-2.94891347	-0.33945494	0.42903283	2.24863626	0.29811657	-0.51589477	0.33238757	0.90760959	-0.31404775	1.51367910	-0.20496997	-4.61841602	-0.90165334	-0.17263341	-0.02291385	0.07864902
6152	61.51000000	-0.60786035	-0.29763798	-0.77047759	-0.71757601	0.16728778	0.15108850	0.47757995	-0.19040199	-2.91056449	-0.31423817	0.21016208	2.31010350	0.50483523	-0.45698141	0.31974157	1.31200358	-0.12148559	1.54144913	-0.27880742	-4.21029225	-0.98991483	-0.22235702	-0.01060823	0.10139478
6153	61.52000000	-0.67448482	-0.26551681	-0.81001703	-0.69182696	0.21794026	0.11528341	0.33511405	-0.24951674	-2.69425077	-0.38551616	-0.07046761	2.31645498	0.42263781	-0.35375043	0.22246127	1.51605753	0.09573912	1.48642556	-1.01320723	-3.76777377	-1.04053930	-0.16304703	-0.00361600	0.06973140
6154	61.53000000	-0.69054446	-0.24710196	-0.77980725	-0.66908147	0.23826590	0.08955419	0.11843839	-0.27547382	-2.42423483	-0.52052961	-0.27438839	2.24026385	0.28203343	-0.26866285	0.13186576	1.39991435	0.25173521	1.48305968	-1.07253744	-2.17507084	-1.16317861	-0.08711949	-0.01760738	0.03146720
6155	61.54000000	-0.65416364	-0.27491545	-0.68559032	-0.63494931	0.25183740	0.08816939	0.29536954	-0.21639520	-2.17082988	-0.60947041	-0.35069286	2.12092694	0.06518313	-0.18418463	0.11304882	0.98134994	0.28903063	1.50485899	-0.63242028	-0.78626961	-1.43631234	-0.05588147	-0.03802126	0.01094804
6156	61.55000000	-0.58196634	-0.32570080	-0.56926958	-0.60340586	0.22787851	0.11615144	0.71640703	-0.07797079	-1.80972890	-0.52497358	-0.34004433	1.98623237	-0.11381228	-0.14779383	0.10493730	0.33128895	0.17082565	1.46020867	0.09822999	-0.17655704	-1.53054913	-0.03762439	-0.07539429	-0.00812263
6157	61.56000000	-0.55119650	-0.33052344	-0.50180722	-0.60754295	0.17349547	0.15785879	0.52549376	-0.05628816	-1.24559526	-0.27860892	-0.26821552	1.85675652	-0.13890986	-0.11115215	0.06300483	-0.36905931	-0.04976809	1.33351423	-0.34986039	-0.03760641	-1.48374340	-0.04964567	-0.11798037	-0.01738508
6158	61.57000000	-0.56065513	-0.32911179	-0.47003078	-0.61686975	0.12347533	0.20580988	-0.63367037	-0.24251566	-0.51996609	-0.03588467	-0.12288560	1.78521385	-0.09939046	-0.07800539	0.05010189	-0.84924107	-0.24834372	1.22038431	-0.76431559	0.43099425	-1.33888875	-0.03568140	-0.14009328	-0.03148311
6159	61.58000000	-0.62353011	-0.36091870	-0.42372431	-0.62606537	0.08550228	0.25287582	-2.04226822	-0.43977861	0.20031019	0.04047302	0.04727039	1.81599432	0.02573515	-0.07611463	0.07808320	-1.02700756	-0.36218300	1.21172387	-0.99456570	1.23098055	-1.10706483	-0.01895771	-0.13990939	-0.04445014
6160	61.59000000	-0.75407164	-0.43085785	-0.38072216	-0.65371575	0.05933592	0.29804507	-2.77581799	-0.47789311	0.74707253	-0.06012596	0.19136789	1.89821398	0.17213041	-0.08205456	0.10670467	-0.99254669	-0.40933087	1.22742748	-0.79774501	1.81644237	-0.93376801	-0.00234824	-0.14164658	-0.03700884
6161	61.60000000	-0.85657751	-0.50932798	-0.35629874	-0.70507692	0.03315073	0.33525902	-2.75355868	-0.45227434	1.11514918	-0.22118179	0.25272854	1.95045516	0.25830751	-0.08653578	0.10631426	-0.81880728	-0.43923328	1.28902139	-0.49388883	2.16584412	-0.77101540	-0.00199879	-0.14694708	-0.01781941
6162	61.61000000	-0.91013777	-0.51858988	-0.32570678	-0.76683094	0.01771006	0.35912964	-2.44836672	-0.53733712	1.45058118	-0.33689326	0.21654619	1.92207264	0.28596565	-0.10402439	0.09526546	-0.57062808	-0.44699055	1.36552481	-0.45585797	2.38826713	-0.56634534	-0.01134002	-0.14588333	0.00135689
6163	61.62000000	-0.96990243	-0.44696904	-0.28488140	-0.81188112	0.02943399	0.35852685	-2.11334021	-0.66537548	1.84505821	-0.36806926	0.13143844	1.79200054	0.22539452	-0.14271903	0.11144456	-0.31755128	-0.38189149	1.39619375	-0.67585583	2.61963055	-0.30361023	-0.01430140	-0.13014614	0.01466429
6164	61.63000000	-0.97071709	-0.39798378	-0.24877806	-0.84053261	0.05519110	0.33783904	-1.75191366	-0.67409893	2.23096718	-0.32400796	0.03602739	1.64458433	0.08014380	-0.17044925	0.15045128	-0.09922918	-0.25418370	1.38544729	-0.97450443	2.84575524	-0.03256613	-0.02298256	-0.11566346	0.02477333
6165	61.64000000	-0.89420319	-0.40472093	-0.21178232	-0.85735986	0.07786080	0.30650129	-1.43532446	-0.55864234	2.58618776	-0.21146217	-0.03735503	1.51822923	-0.07720223	-0.17340100	0.17866698	0.05101362	-0.13734736	1.33169490	-1.07772567	3.01011686	0.17266370	-0.01132781	-0.11054102	0.02655876
6166	61.65000000	-0.81397676	-0.38939644	-0.18631807	-0.87056798	0.09564607	0.25403079	-1.25445717	-0.44696023	2.87723301	-0.05968366	-0.08007195	1.42183873	-0.14988336	-0.16060689	0.17475884	0.09819753	-0.09195983	1.26506331	-1.05179583	3.12295997	0.31362353	-0.01328949	-0.09765508	0.02281630
6167	61.66000000	-0.77132600	-0.35677093	-0.16440658	-0.87264740	0.11333234	0.19797859	-1.05206456	-0.36036534	3.13555745	0.10271429	-0.09178937	1.34503252	-0.19413642	-0.14570444	0.18871116	0.02918198	-0.08202398	1.18919927	-1.01087356	3.24307414	0.42058091	0.02045518	-0.10361847	0.01337320
6168	61.67000000	-0.76687518	-0.30954617	-0.13616040	-0.85086077	0.12565353	0.14473609	-0.60202742	-0.32845106	3.40715841	0.27887748	-0.06171634	1.26111176	-0.18755995	-0.12702412	0.22465710	-0.05003673	-0.09043221	1.12663557	-1.08628864	3.35427034	0.50069001	0.04915381	-0.10200821	-0.00174607
6169	61.68000000	-0.74075081	-0.23432212	-0.11519760	-0.80147339	0.12923104	0.09019064	0.08333623	-0.36657849	3.65045724	0.46472576	-0.00959145	1.17327584	-0.14117006	-0.11763840	0.27437289	-0.10611866	-0.12308541	1.08256847	-1.09162466	3.44328565	0.56361606	0.06786386	-0.10810463	0.00173107
6170	61.69000000	-0.69327806	-0.16775019	-0.10722205	-0.73984446	0.12938488	0.04701972	0.81611925	-0.41192135	3.83920277	0.62355687	0.04951864	1.08099212	-0.07412228	-0.11528491	0.30563254	-0.14412801	-0.16121628	1.04408138	-1.04386864	3.51867673	0.61535028	0.05136145	-0.11851163	0.01340896
